<svg id="Layer_1" data-name="Layer 1" xmlns="http://www.w3.org/2000/svg" viewBox="0 0 512 512"><defs><style>.cls-1{fill:#6b287c;}.cls-2{fill:#ffc84d;}.cls-3{fill:#ffb232;}</style></defs><title>comet-filled</title><path class="cls-1" d="M72.33,479.52a10.79,10.79,0,0,1-3.38-.55,10.67,10.67,0,0,1-6.74-13.49,379,379,0,0,1,75.11-130.7,10.67,10.67,0,1,1,16,14.07A357.83,357.83,0,0,0,82.44,472.22,10.67,10.67,0,0,1,72.33,479.52ZM10.67,452a10.68,10.68,0,0,1-10-14.47A414.74,414.74,0,0,1,44,354.15a10.67,10.67,0,1,1,17.7,11.91,393.28,393.28,0,0,0-41.07,79.12A10.67,10.67,0,0,1,10.67,452Zm64-110.78a10.67,10.67,0,0,1-8.27-17.4A413.32,413.32,0,0,1,279.16,185a10.66,10.66,0,1,1,5.63,20.57A392.11,392.11,0,0,0,83,337.34,10.65,10.65,0,0,1,74.72,341.27Zm96.49-15.47a10.67,10.67,0,0,1-7.28-18.46,379.35,379.35,0,0,1,104.7-69.46,10.67,10.67,0,0,1,8.68,19.49,358,358,0,0,0-98.82,65.57A10.62,10.62,0,0,1,171.21,325.8ZM10.66,322.5a10.67,10.67,0,0,1-8.33-17.33A455.38,455.38,0,0,1,148.4,185.44a10.67,10.67,0,1,1,9.77,19A433.71,433.71,0,0,0,19,318.49,10.65,10.65,0,0,1,10.66,322.5Zm0-85.6a10.67,10.67,0,0,1-7-18.74c12-10.39,25-20.48,38.54-30a10.67,10.67,0,1,1,12.26,17.46c-13,9.1-25.36,18.76-36.87,28.68A10.62,10.62,0,0,1,10.67,236.9Zm175.57-46.6a10.67,10.67,0,0,1-4.1-20.52A444.52,444.52,0,0,1,249.26,148a10.67,10.67,0,1,1,5,20.75,423.17,423.17,0,0,0-63.88,20.76A10.61,10.61,0,0,1,186.25,190.29ZM78.89,187.94a10.67,10.67,0,0,1-5.44-19.85A481,481,0,0,1,235.6,108.15a10.67,10.67,0,1,1,3.69,21,459.56,459.56,0,0,0-155,57.29A10.65,10.65,0,0,1,78.89,187.94Z"/><path class="cls-2" d="M498.55,130l-42.13,55.23.18.95,12.28,61.23a13.34,13.34,0,0,1-.63,7.59,13.59,13.59,0,0,1-19,7l-60.6-31.88L333,261a13.54,13.54,0,0,1-19.82-14.49l12.1-60.42.18-.95-45-54.86a13.53,13.53,0,0,1,10.43-22.13H348l28.9-57.57a13.6,13.6,0,0,1,24.29.14l28.09,57.44h58.43A13.58,13.58,0,0,1,498.55,130Z"/><path class="cls-3" d="M317.7,259.51A13.32,13.32,0,0,0,333,261l55.68-30.93V162.38Zm71-97.13L278.33,116.73a13.3,13.3,0,0,0,2.12,13.59l45,54.86-.18.95ZM376.95,50.62,348,108.19h-1.22l41.86,54.19V43.21A13.38,13.38,0,0,0,376.95,50.62Zm110.81,57.57H430l-41.32,54.19,111.45-46.1A13.38,13.38,0,0,0,487.76,108.19ZM468.88,247.36,456.6,186.13l-67.91-23.75L463.6,261a13.58,13.58,0,0,0,4.65-6A13.34,13.34,0,0,0,468.88,247.36Z"/><path class="cls-1" d="M291,153.81a10.64,10.64,0,0,1-8.25-3.9L272.2,137.08a24.19,24.19,0,0,1,18.68-39.56h50.59l25.95-51.69a24.12,24.12,0,0,1,21.65-13.35h.16a24.07,24.07,0,0,1,21.6,13.59L436,97.52h11.59a10.67,10.67,0,1,1,0,21.33H429.33a10.68,10.68,0,0,1-9.58-6L391.66,55.44a2.53,2.53,0,0,0-2.6-1.62,2.76,2.76,0,0,0-2.59,1.6L357.58,113a10.67,10.67,0,0,1-9.53,5.88H290.88a2.86,2.86,0,0,0-2.21,4.67l10.55,12.85A10.67,10.67,0,0,1,291,153.81Z"/><path class="cls-1" d="M455.66,274.26a24.32,24.32,0,0,1-11.35-2.83l-55.49-29.19-50.64,28.13a24.19,24.19,0,0,1-35.45-25.95L314,188l-11.29-13.76a10.67,10.67,0,1,1,16.49-13.53l14.49,17.66a10.66,10.66,0,0,1,2.21,8.86l-12.28,61.36a2.86,2.86,0,0,0,4.18,3.08l55.68-30.93a10.64,10.64,0,0,1,10.15-.11l60.6,31.87a2.76,2.76,0,0,0,3.09-.22,2.7,2.7,0,0,0,1.08-2.85l-2.62-13.06a10.67,10.67,0,1,1,20.92-4.2l2.62,13a24.24,24.24,0,0,1-23.68,29Z"/><path class="cls-1" d="M460.08,214h0a10.66,10.66,0,0,1-10.46-8.58L446,187.27a10.66,10.66,0,0,1,2-8.55l42.13-55.23a2.9,2.9,0,0,0-2.31-4.63h-8.94a10.67,10.67,0,1,1,0-21.33h8.94a24.23,24.23,0,0,1,19.29,38.87l-39.23,51.43,2.54,12.75A10.66,10.66,0,0,1,460.08,214Z"/></svg>